999
"DXF R12 Output" (www.mydxf.blogspot.com)
 0 
SECTION
 2 
HEADER
 9 
$ACADVER
 1 
AC1009
 9 
$EXTMIN
 10 
 0 
 20 
 0 
 9 
$EXTMAX
 10 
 8.5 
 20 
 11 
 0 
ENDSEC
 0 
SECTION
 2 
ENTITIES
0
LINE
8
Layer 1
10
0.846666
20
317.647000
11
-0.846666
21
315.953000
0
LINE
8
Layer 1
10
0.000000
20
318.211000
11
0.000000
21
315.389000
0
LINE
8
Layer 1
10
2.257780
20
315.671000
11
1.128890
21
314.542110
0
LINE
8
Layer 1
10
1.693330
20
316.236000
11
0.564440
21
315.107110
0
LINE
8
Layer 1
10
1.128890
20
316.800000
11
0.000000
21
315.671110
0
LINE
8
0
10
25.098800
20
310.548000
11
22.589983
21
310.299779
0
LINE
8
0
10
22.589983
20
310.299779
11
20.200452
21
309.573658
0
LINE
8
0
10
20.200452
20
309.573658
11
17.997354
21
308.397450
0
LINE
8
0
10
17.997354
20
308.397450
11
16.047833
21
306.798967
0
LINE
8
0
10
16.047833
20
306.798967
11
14.449350
21
304.849446
0
LINE
8
0
10
14.449350
20
304.849446
11
13.273142
21
302.646348
0
LINE
8
0
10
13.273142
20
302.646348
11
12.547021
21
300.256817
0
LINE
8
0
10
12.547021
20
300.256817
11
12.298800
21
297.748000
0
LINE
8
0
10
12.298800
20
297.748000
11
12.298800
21
262.548000
0
LINE
8
0
10
12.298800
20
262.548000
11
132.832000
21
262.548000
0
LINE
8
0
10
132.832000
20
262.548000
11
132.832000
21
297.748000
0
LINE
8
0
10
132.832000
20
297.748000
11
132.583779
21
300.256817
0
LINE
8
0
10
132.583779
20
300.256817
11
131.857658
21
302.646348
0
LINE
8
0
10
131.857658
20
302.646348
11
130.681450
21
304.849446
0
LINE
8
0
10
130.681450
20
304.849446
11
129.082967
21
306.798967
0
LINE
8
0
10
129.082967
20
306.798967
11
127.133446
21
308.397450
0
LINE
8
0
10
127.133446
20
308.397450
11
124.930348
21
309.573658
0
LINE
8
0
10
124.930348
20
309.573658
11
122.540817
21
310.299779
0
LINE
8
0
10
122.540817
20
310.299779
11
120.032000
21
310.548000
0
LINE
8
0
10
120.032000
20
310.548000
11
25.098800
21
310.548000
0
LINE
8
0
10
24.972400
20
256.822000
11
22.463583
21
256.573779
0
LINE
8
0
10
22.463583
20
256.573779
11
20.074052
21
255.847658
0
LINE
8
0
10
20.074052
20
255.847658
11
17.870954
21
254.671450
0
LINE
8
0
10
17.870954
20
254.671450
11
15.921433
21
253.072967
0
LINE
8
0
10
15.921433
20
253.072967
11
14.322950
21
251.123446
0
LINE
8
0
10
14.322950
20
251.123446
11
13.146742
21
248.920348
0
LINE
8
0
10
13.146742
20
248.920348
11
12.420621
21
246.530817
0
LINE
8
0
10
12.420621
20
246.530817
11
12.172400
21
244.022000
0
LINE
8
0
10
12.172400
20
244.022000
11
12.172400
21
208.822000
0
LINE
8
0
10
12.172400
20
208.822000
11
132.706000
21
208.822000
0
LINE
8
0
10
132.706000
20
208.822000
11
132.706000
21
244.022000
0
LINE
8
0
10
132.706000
20
244.022000
11
132.457779
21
246.530817
0
LINE
8
0
10
132.457779
20
246.530817
11
131.731658
21
248.920348
0
LINE
8
0
10
131.731658
20
248.920348
11
130.555450
21
251.123446
0
LINE
8
0
10
130.555450
20
251.123446
11
128.956967
21
253.072967
0
LINE
8
0
10
128.956967
20
253.072967
11
127.007446
21
254.671450
0
LINE
8
0
10
127.007446
20
254.671450
11
124.804348
21
255.847658
0
LINE
8
0
10
124.804348
20
255.847658
11
122.414817
21
256.573779
0
LINE
8
0
10
122.414817
20
256.573779
11
119.906000
21
256.822000
0
LINE
8
0
10
119.906000
20
256.822000
11
24.972400
21
256.822000
0
LINE
8
0
10
23.859700
20
199.149000
11
21.350883
21
198.900779
0
LINE
8
0
10
21.350883
20
198.900779
11
18.961352
21
198.174658
0
LINE
8
0
10
18.961352
20
198.174658
11
16.758254
21
196.998450
0
LINE
8
0
10
16.758254
20
196.998450
11
14.808733
21
195.399967
0
LINE
8
0
10
14.808733
20
195.399967
11
13.210250
21
193.450446
0
LINE
8
0
10
13.210250
20
193.450446
11
12.034042
21
191.247348
0
LINE
8
0
10
12.034042
20
191.247348
11
11.307921
21
188.857817
0
LINE
8
0
10
11.307921
20
188.857817
11
11.059700
21
186.349000
0
LINE
8
0
10
11.059700
20
186.349000
11
11.059700
21
151.149000
0
LINE
8
0
10
11.059700
20
151.149000
11
131.593000
21
151.149000
0
LINE
8
0
10
131.593000
20
151.149000
11
131.593000
21
186.349000
0
LINE
8
0
10
131.593000
20
186.349000
11
131.344779
21
188.857817
0
LINE
8
0
10
131.344779
20
188.857817
11
130.618658
21
191.247348
0
LINE
8
0
10
130.618658
20
191.247348
11
129.442450
21
193.450446
0
LINE
8
0
10
129.442450
20
193.450446
11
127.843967
21
195.399967
0
LINE
8
0
10
127.843967
20
195.399967
11
125.894446
21
196.998450
0
LINE
8
0
10
125.894446
20
196.998450
11
123.691348
21
198.174658
0
LINE
8
0
10
123.691348
20
198.174658
11
121.301817
21
198.900779
0
LINE
8
0
10
121.301817
20
198.900779
11
118.793000
21
199.149000
0
LINE
8
0
10
118.793000
20
199.149000
11
23.859700
21
199.149000
 0 
ENDSEC
 0 
EOF