0
SECTION
2
HEADER
9
$INSUNITS
70
4
9
$ACADVER
1
AC1014
9
$HANDSEED
5
FFFF
0
ENDSEC
0
SECTION
2
TABLES
0
TABLE
2
VPORT
5
8
100
AcDbSymbolTable
0
ENDTAB
0
TABLE
2
LTYPE
5
5
100
AcDbSymbolTable
0
LTYPE
5
14
100
AcDbSymbolTableRecord
100
AcDbLinetypeTableRecord
2
BYBLOCK
70
0
0
LTYPE
5
15
100
AcDbSymbolTableRecord
100
AcDbLinetypeTableRecord
2
BYLAYER
70
0
0
ENDTAB
0
TABLE
2
LAYER
5
2
100
AcDbSymbolTable
70
2
0
LAYER
5
50
100
AcDbSymbolTableRecord
100
AcDbLayerTableRecord
2
0
70
0
6
CONTINUOUS
0
ENDTAB
0
TABLE
2
STYLE
5
3
100
AcDbSymbolTable
70
1
0
STYLE
5
11
100
AcDbSymbolTableRecord
100
AcDbTextStyleTableRecord
2
STANDARD
70
0
0
ENDTAB
0
TABLE
2
VIEW
5
6
100
AcDbSymbolTable
70
0
0
ENDTAB
0
TABLE
2
UCS
5
7
100
AcDbSymbolTable
70
0
0
ENDTAB
0
TABLE
2
APPID
5
9
100
AcDbSymbolTable
70
2
0
APPID
5
12
100
AcDbSymbolTableRecord
100
AcDbRegAppTableRecord
2
ACAD
70
0
0
ENDTAB
0
TABLE
2
DIMSTYLE
5
A
100
AcDbSymbolTable
70
1
0
ENDTAB
0
TABLE
2
BLOCK_RECORD
5
1
100
AcDbSymbolTable
70
1
0
BLOCK_RECORD
5
1F
100
AcDbSymbolTableRecord
100
AcDbBlockTableRecord
2
*MODEL_SPACE
0
BLOCK_RECORD
5
1B
100
AcDbSymbolTableRecord
100
AcDbBlockTableRecord
2
*PAPER_SPACE
0
ENDTAB
0
ENDSEC
0
SECTION
2
BLOCKS
0
BLOCK
5
20
100
AcDbEntity
100
AcDbBlockBegin
2
*MODEL_SPACE
0
ENDBLK
5
21
100
AcDbEntity
100
AcDbBlockEnd
0
BLOCK
5
1C
100
AcDbEntity
100
AcDbBlockBegin
2
*PAPER_SPACE
0
ENDBLK
5
1D
100
AcDbEntity
100
AcDbBlockEnd
0
ENDSEC
0
SECTION
2
ENTITIES
0
LWPOLYLINE
5
100
100
AcDbEntity
8
0
100
AcDbPolyline
90
6
70
1
43
0.0
10
6.5000000000000036
20
-1.1102230246251565e-15
42
-0.26794919243112264
10
3.2500000000000027
20
-5.6291651245988517
42
-0.26794919243112264
10
-3.2499999999999964
20
-5.6291651245988552
42
-0.26794919243112297
10
-6.5000000000000018
20
1.1102230246251565e-15
42
-0.26794919243112247
10
-3.2500000000000027
20
5.6291651245988517
42
-0.26794919243112286
10
3.2500000000000053
20
5.6291651245988525
42
-0.26794919243112264
0
SPLINE
5
101
100
AcDbEntity
8
0
100
AcDbSpline
70
0
71
3
72
15
73
11
74
0
42
0.000000001
43
0.0000000001
44
0.0000000001
40
0
40
0
40
0
40
0
40
0.13790322999339352
40
0.2688733426002935
40
0.39517812734611313
40
0.5170892381308877
40
0.63674302651354753
40
0.75622181646379683
40
0.87662835946367945
40
1
40
1
40
1
40
1
10
-0.3951259515224359
20
3.2236582698985048
30
0
10
-0.41888673346014604
20
3.2243360474596781
30
0
10
-0.46521371842413034
20
3.2256575271554095
30
0
10
-0.53287086400969275
20
3.2346361677177438
30
0
10
-0.59637070393295366
20
3.2504389966705585
30
0
10
-0.65624882297931775
20
3.2716328185951493
30
0
10
-0.71183217471859916
20
3.2999807758758912
30
0
10
-0.76338614755364909
20
3.3344716014057929
30
0
10
-0.81194668140277038
20
3.3743028296999142
30
0
10
-0.83990107688856619
20
3.405728754511133
30
0
10
-0.85404828063443183
20
3.4216328351925593
30
0
0
SPLINE
5
102
100
AcDbEntity
8
0
100
AcDbSpline
70
0
71
3
72
15
73
11
74
0
42
0.000000001
43
0.0000000001
44
0.0000000001
40
0
40
0
40
0
40
0
40
0.097420668177214467
40
0.20088558803932066
40
0.31117197017265047
40
0.42979794582537301
40
0.55773992636458736
40
0.69471526936415873
40
0.84212991020605521
40
1
40
1
40
1
40
1
10
-0.85404828063443183
20
3.4216328351925593
30
0
10
-0.87033203755307431
20
3.4451223934405344
30
0
10
-0.90390984137331054
20
3.4935588680584755
30
0
10
-0.94320974938280611
20
3.5761475503412448
30
0
10
-0.97826596312287895
20
3.6670660938409148
30
0
10
-1.0057786635348158
20
3.768098309602808
30
0
10
-1.0273279663038444
20
3.878440095401245
30
0
10
-1.0428919431001218
20
3.9983079653241678
30
0
10
-1.0516996217088259
20
4.1276501324974006
30
0
10
-1.0529978558866184
20
4.217084673723086
30
0
10
-1.053669204059829
20
4.2633334298419143
30
0
0
SPLINE
5
103
100
AcDbEntity
8
0
100
AcDbSpline
70
0
71
3
72
31
73
27
74
0
42
0.000000001
43
0.0000000001
44
0.0000000001
40
0
40
0
40
0
40
0
40
0.063114458394793849
40
0.12361464576949042
40
0.18097371118595745
40
0.23526145500832216
40
0.28710070183387232
40
0.3360307363034436
40
0.38238234858506631
40
0.4263340836597071
40
0.46821069479816046
40
0.50824960126180541
40
0.54662833660658505
40
0.58364953923044605
40
0.618994315030162
40
0.65358301862059631
40
0.68715613619033156
40
0.72042219197880752
40
0.75323021881181695
40
0.78626015607790023
40
0.81950398349888398
40
0.85354527471201858
40
0.88830828033972986
40
0.92399586074069495
40
0.961350304754645
40
1
40
1
40
1
40
1
10
-1.053669204059829
20
4.2633334298419143
30
0
10
-1.0534038110714667
20
4.2926963350440648
30
0
10
-1.0528840179673118
20
4.35020590127725
30
0
10
-1.0496599102019666
20
4.434352727923466
30
0
10
-1.0440308792971016
20
4.5142634849628518
30
0
10
-1.0356282857944312
20
4.5898687736367885
30
0
10
-1.0256780408519703
20
4.6613392499391564
30
0
10
-1.0127426596533058
20
4.7285729181295464
30
0
10
-0.99818847530951027
20
4.7917206277740672
30
0
10
-0.98072606588620659
20
4.8507165576150566
30
0
10
-0.96154059454067686
20
4.9060679652553123
30
0
10
-0.93977406522257945
20
4.9576860545405603
30
0
10
-0.91528376702847281
20
5.0055160981467495
30
0
10
-0.88927324589259027
20
5.0500541204524048
30
0
10
-0.86037325465929404
20
5.0906073719115668
30
0
10
-0.83032813885017842
20
5.128313942774736
30
0
10
-0.79695439883982688
20
5.1617909859604598
30
0
10
-0.76163978632933715
20
5.1918998688236826
30
0
10
-0.72386428449358819
20
5.2184692032963786
30
0
10
-0.68382776324105099
20
5.2413953342297894
30
0
10
-0.64168427221420699
20
5.2616374547800611
30
0
10
-0.59663060307924543
20
5.2768757178421613
30
0
10
-0.54960206134851797
20
5.2892981326045749
30
0
10
-0.50023664569584525
20
5.2984362115256536
30
0
10
-0.4484799561946432
20
5.303823417442878
30
0
10
-0.41311153420799579
20
5.3043746398088931
30
0
10
-0.3951259515224359
20
5.304654947916668
30
0
0
SPLINE
5
104
100
AcDbEntity
8
0
100
AcDbSpline
70
0
71
3
72
27
73
23
74
0
42
0.000000001
43
0.0000000001
44
0.0000000001
40
0
40
0
40
0
40
0
40
0.056724337218150608
40
0.11143723573701074
40
0.16436782222290125
40
0.21643537246208996
40
0.26764149032192497
40
0.31735977996902776
40
0.36747306333228091
40
0.41821039705280805
40
0.47140428264702022
40
0.52796572012904919
40
0.58806111582321374
40
0.65213426299371424
40
0.68634483633530563
40
0.72326368031696531
40
0.76261025077154188
40
0.80473893664521778
40
0.84943033879094954
40
0.89671125838649213
40
0.9468896380534767
40
1
40
1
40
1
40
1
10
-0.3951259515224359
20
5.304654947916668
30
0
10
-0.36873876241309222
20
5.3038791832318708
30
0
10
-0.31690007099028411
20
5.3023551623918621
30
0
10
-0.24121531381234271
20
5.2899255249664368
30
0
10
-0.16988730816713052
20
5.2686627144589204
30
0
10
-0.10296239534038799
20
5.2399782658122218
30
0
10
-0.041584646348830398
20
5.2035434952343742
30
0
10
0.013228270484408959
20
5.1592514805857999
30
0
10
0.060885109313143365
20
5.1075672792734741
30
0
10
0.10086576948547295
20
5.0478784504589536
30
0
10
0.13581285720371733
20
4.9818316106464451
30
0
10
0.16685908277889611
20
4.9091303172538563
30
0
10
0.19492396895348235
20
4.8298560402903234
30
0
10
0.21483942313715665
20
4.7588944956149968
30
0
10
0.22904510025398961
20
4.6976379723197237
30
0
10
0.23844812982023469
20
4.6471153247392669
30
0
10
0.24625452947460691
20
4.592601103570364
30
0
10
0.25223528660455247
20
4.5342271933888689
30
0
10
0.25714235671626867
20
4.4720590657293187
30
0
10
0.26093186207436408
20
4.4060580135261311
30
0
10
0.2628554240485238
20
4.3360590783784971
30
0
10
0.26322649756162897
20
4.2880297703493317
30
0
10
0.26341730101495725
20
4.2633334298419143
30
0
0
SPLINE
5
105
100
AcDbEntity
8
0
100
AcDbSpline
70
0
71
3
72
31
73
27
74
0
42
0.000000001
43
0.0000000001
44
0.0000000001
40
0
40
0
40
0
40
0
40
0.062873946211432233
40
0.12283662999191274
40
0.17965656744303132
40
0.23396001223086232
40
0.28559501869555892
40
0.33451310607838058
40
0.3809048259061763
40
0.42489459193933465
40
0.46652903476548735
40
0.50648829406924634
40
0.54503155364475442
40
0.58183117982313448
40
0.61744827994944307
40
0.65206691276904616
40
0.68587971424651062
40
0.71917455479139225
40
0.75218164620639283
40
0.78524016391809115
40
0.81865644977708341
40
0.85254774065331118
40
0.88762634225851911
40
0.923635078068751
40
0.96102184447698924
40
1
40
1
40
1
40
1
10
0.26341730101495725
20
4.2633334298419143
30
0
10
0.26314693677895717
20
4.2341084464989596
30
0
10
0.26261872702560546
20
4.1770116889112279
30
0
10
0.25948101074925556
20
4.0935395780324964
30
0
10
0.2535127912723516
20
4.0142317087498673
30
0
10
0.24616878816654958
20
3.9389064098094
30
0
10
0.23505884975009195
20
3.8677647643074566
30
0
10
0.22308728915986717
20
3.8005045102137758
30
0
10
0.20828142583457321
20
3.7374310683174894
30
0
10
0.19100645938551541
20
3.6785167951545756
30
0
10
0.17155092444557205
20
3.6234501732648723
30
0
10
0.15021491980458127
20
3.5718150397316051
30
0
10
0.1265832460010386
20
3.5236466774921666
30
0
10
0.099952535169652787
20
3.4794148965921288
30
0
10
0.07154126297064152
20
3.4385325941940614
30
0
10
0.041141347042073721
20
3.4008464115913206
30
0
10
0.0081082735766200426
20
3.3668987618825792
30
0
10
-0.027524578595945485
20
3.3368801894650635
30
0
10
-0.06503484891718353
20
3.3098396859107693
30
0
10
-0.10516870628252774
20
3.2866872048481337
30
0
10
-0.14775049105363744
20
3.2675057764272704
30
0
10
-0.19249569792975679
20
3.2511066080889988
30
0
10
-0.23985833158686645
20
3.2390902593923965
30
0
10
-0.2894648947036087
20
3.2298919322338016
30
0
10
-0.34149816408185685
20
3.2244752910858794
30
0
10
-0.37700338807650413
20
3.223934367776331
30
0
10
-0.3951259515224359
20
3.2236582698985048
30
0
0
SPLINE
5
106
100
AcDbEntity
8
0
100
AcDbSpline
70
0
71
3
72
31
73
27
74
0
42
0.000000001
43
0.0000000001
44
0.0000000001
40
0
40
0
40
0
40
0
40
0.064098171117544872
40
0.12492475664386961
40
0.18252984690982407
40
0.23697737370348279
40
0.28838575607762834
40
0.3368146729082942
40
0.38210494179334703
40
0.42501055059545878
40
0.4656105151231314
40
0.50483328386115744
40
0.54296633185855769
40
0.57982752526044579
40
0.61584365062781798
40
0.65100644069725855
40
0.68594851060544493
40
0.72070059250817387
40
0.75509865415838973
40
0.78913562149411431
40
0.82316693400310847
40
0.8573032729631056
40
0.8918342388677305
40
0.92709868572252319
40
0.96307203657911766
40
1
40
1
40
1
40
1
10
2.6341730101495724
20
4.3188980167747566
30
0
10
2.6339870996784143
20
4.2872005318688737
30
0
10
2.6336247676498714
20
4.2254234090734597
30
0
10
2.6293378173927504
20
4.135244487750346
30
0
10
2.622843701870297
20
4.0499984872419867
30
0
10
2.614008797686334
20
3.969629425021552
30
0
10
2.6020195651926925
20
3.8942599625320531
30
0
10
2.5877694086726994
20
3.8239032752410038
30
0
10
2.5709637783924815
20
3.7584294734973649
30
0
10
2.5512147149310529
20
3.6978328082027376
30
0
10
2.5287638449283496
20
3.6414169011051412
30
0
10
2.5041643236204676
20
3.5884870723237157
30
0
10
2.4766142228007721
20
3.5391215955037296
30
0
10
2.4464230950944095
20
3.4932257990108742
30
0
10
2.4139786131660905
20
3.4507194627956106
30
0
10
2.378774209671743
20
3.4117164550965406
30
0
10
2.3407984521535199
20
3.3763346757743573
30
0
10
2.3005354092781749
20
3.3441759378528952
30
0
10
2.2580455064204004
20
3.3158360139731609
30
0
10
2.2139071781508148
20
3.2908295557857743
30
0
10
2.1676222970749452
20
3.2703448899581442
30
0
10
2.1196666855004587
20
3.2535400057669523
30
0
10
2.0701255588775287
20
3.239664847026642
30
0
10
2.0185953982529616
20
3.2303157399100768
30
0
10
1.9653142717013194
20
3.2250207253965506
30
0
10
1.9292688909900435
20
3.2241163691216697
30
0
10
1.9110102009569476
20
3.2236582698985043
30
0
0
SPLINE
5
107
100
AcDbEntity
8
0
100
AcDbSpline
70
0
71
3
72
23
73
19
74
0
42
0.000000001
43
0.0000000001
44
0.0000000001
40
0
40
0
40
0
40
0
40
0.067624785647837665
40
0.13230816814837637
40
0.19444271853260064
40
0.25508975273800882
40
0.31463582904324261
40
0.37297166330131454
40
0.43133112168329985
40
0.49055222996912207
40
0.54952843715507493
40
0.60918821915499466
40
0.6691476079191585
40
0.73067279918791284
40
0.79405199436379403
40
0.85984464771137137
40
0.92821105354934785
40
1
40
1
40
1
40
1
10
1.9110102009569476
20
3.2236582698985043
30
0
10
1.8916436638137122
20
3.2239931189653159
30
0
10
1.8537529551297296
20
3.2246482525263547
30
0
10
1.7984364185323733
20
3.2315370279655364
30
0
10
1.745740074358787
20
3.2420102118333154
30
0
10
1.6958172865886967
20
3.2574711115063653
30
0
10
1.6482941809139298
20
3.2765030638225245
30
0
10
1.6039818848520331
20
3.3008248164902438
30
0
10
1.5620929112971715
20
3.3288848425273403
30
0
10
1.5231440419344831
20
3.3612489960904872
30
0
10
1.4875913142778117
20
3.3977984276730355
30
0
10
1.4554228903174473
20
3.4376323625416303
30
0
10
1.4272206600471502
20
3.4812667182086927
30
0
10
1.4031322154318402
20
3.5284442394666526
30
0
10
1.3817954415105453
20
3.5787680195969211
30
0
10
1.365253639139494
20
3.6329128694332318
30
0
10
1.3518150157973732
20
3.6903794127932943
30
0
10
1.3462689728063206
20
3.7301314754460186
30
0
10
1.3434282351762818
20
3.7504928719284192
30
0
0
LINE
5
108
100
AcDbEntity
8
0
100
AcDbLine
10
1.3434282351762818
20
3.7504928719284192
30
0
11
1.6068455361912393
21
3.7768346020299148
31
0
0
SPLINE
5
109
100
AcDbEntity
8
0
100
AcDbSpline
70
0
71
3
72
19
73
15
74
0
42
0.000000001
43
0.0000000001
44
0.0000000001
40
0
40
0
40
0
40
0
40
0.082876375569071237
40
0.1602070628437203
40
0.23345938669289656
40
0.30192090944119909
40
0.3668957383844863
40
0.42841034775950954
40
0.48753678637161413
40
0.54390607589228679
40
0.65349798480259014
40
0.76343839846412875
40
0.8776167558156639
40
1
40
1
40
1
40
1
10
1.6068455361912393
20
3.7768346020299148
30
0
10
1.6092269857684116
20
3.7633381362918423
30
0
10
1.6138305297753686
20
3.7372483233648088
30
0
10
1.6242192777153452
20
3.7000658690552801
30
0
10
1.6347560164937414
20
3.6653968311407263
30
0
10
1.6483575267419548
20
3.6340135528076587
30
0
10
1.6625225081253436
20
3.6050635777128335
30
0
10
1.6785639608580858
20
3.5788370067751241
30
0
10
1.6967676897283612
20
3.5558605924823734
30
0
10
1.722473745341685
20
3.5289363299369287
30
0
10
1.7589468954844489
20
3.5008404050944106
30
0
10
1.8095036247023188
20
3.4780816107844497
30
0
10
1.8651207757561103
20
3.4627792670884872
30
0
10
1.9043155526024613
20
3.4614312345938942
30
0
10
1.9245926555405313
20
3.4607338408119666
30
0
0
SPLINE
5
110
100
AcDbEntity
8
0
100
AcDbSpline
70
0
71
3
72
23
73
19
74
0
42
0.000000001
43
0.0000000001
44
0.0000000001
40
0
40
0
40
0
40
0
40
0.056112146969621468
40
0.11043740408010522
40
0.16343141370319794
40
0.21663130879309445
40
0.26925054550290101
40
0.32030261261684206
40
0.37017060516789607
40
0.42051631822905189
40
0.47488839326558663
40
0.53591919758764317
40
0.60388039145730366
40
0.67927656660770697
40
0.75872014495610818
40
0.83816965436415802
40
0.91878608627186886
40
0.99999999999999989
40
0.99999999999999989
40
0.99999999999999989
40
0.99999999999999989
10
1.9245926555405313
20
3.4607338408119666
30
0
10
1.942335317696037
20
3.4613727701618786
30
0
10
1.9772556273927098
20
3.4626302821731914
30
0
10
2.0281705950543225
20
3.4723786159397658
30
0
10
2.0765899382627842
20
3.4879952430048777
30
0
10
2.1216708107463691
20
3.5104018323034669
30
0
10
2.1632491410015042
20
3.5376700262073433
30
0
10
2.199566410714815
20
3.5700701333146467
30
0
10
2.2311075678769723
20
3.6062067211840154
30
0
10
2.2570126557876029
20
3.6478430039109968
30
0
10
2.279123348161193
20
3.6953986271621808
30
0
10
2.3000150110988749
20
3.7494784001980221
30
0
10
2.3197781782624585
20
3.8110140233089229
30
0
10
2.3373425189779509
20
3.8792206308508015
30
0
10
2.3530705262439016
20
3.9516081230976297
30
0
10
2.3641082897659267
20
4.0265362768645829
30
0
10
2.3708993955818007
20
4.1025483728278154
30
0
10
2.3716258896044433
20
4.1536992842090719
30
0
10
2.3719904777331231
20
4.1793691651433962
30
0
0
SPLINE
5
111
100
AcDbEntity
8
0
100
AcDbSpline
70
0
71
3
72
9
73
5
74
0
42
0.000000001
43
0.0000000001
44
0.0000000001
40
0
40
0
40
0
40
0
40
0.41798306281994757
40
0.99999999999999989
40
0.99999999999999989
40
0.99999999999999989
40
0.99999999999999989
10
2.3719904777331231
20
4.1793691651433962
30
0
10
2.3718657919611057
20
4.1863664860580272
30
0
10
2.3715674885533646
20
4.2031071665713071
30
0
10
2.3710543591426285
20
4.219842715322927
30
0
10
2.370755709134615
20
4.2295830881493739
30
0
0
SPLINE
5
112
100
AcDbEntity
8
0
100
AcDbSpline
70
0
71
3
72
15
73
11
74
0
42
0.000000001
43
0.0000000001
44
0.0000000001
40
0
40
0
40
0
40
0
40
0.12235507096646077
40
0.24451298536329777
40
0.36837843089378691
40
0.49535260966766592
40
0.62262474514501642
40
0.74762053059369526
40
0.8723766307107137
40
1
40
1
40
1
40
1
10
2.370755709134615
20
4.2295830881493739
30
0
10
2.3580567788817879
20
4.210298840076188
30
0
10
2.3326793807689605
20
4.1717614175597681
30
0
10
2.285927945326943
20
4.1200395319972065
30
0
10
2.2324434820263797
20
4.074161516991424
30
0
10
2.1730378474965111
20
4.0344836203349397
30
0
10
2.1091779065527758
20
4.0019207585749594
30
0
10
2.0419746230049065
20
3.9782592644564674
30
0
10
1.9720073135531935
20
3.9636486027368538
30
0
10
1.9243886841236366
20
3.9620401007731121
30
0
10
1.9003088731032149
20
3.9612267127403848
30
0
0
SPLINE
5
113
100
AcDbEntity
8
0
100
AcDbSpline
70
0
71
3
72
23
73
19
74
0
42
0.000000001
43
0.0000000001
44
0.0000000001
40
0
40
0
40
0
40
0
40
0.060968139747113313
40
0.12001695515069714
40
0.17768092845099082
40
0.23484946767261844
40
0.29230336564936482
40
0.3508476644321849
40
0.41019185433851285
40
0.47213246567511885
40
0.53461700875428197
40
0.59708902081248072
40
0.65941046408888149
40
0.72300448286501329
40
0.78832596098027952
40
0.8559764045578121
40
0.92654584228104042
40
1
40
1
40
1
40
1
10
1.9003088731032149
20
3.9612267127403848
30
0
10
1.8802422833834154
20
3.9617466160412529
30
0
10
1.8407408157575706
20
3.9627700556836931
30
0
10
1.7828781159938367
20
3.9718660630688705
30
0
10
1.7272255397536151
20
3.9855068493731904
30
0
10
1.6743104577849466
20
4.0061596602646699
30
0
10
1.6233095869658685
20
4.0317018730617624
30
0
10
1.5747584352316235
20
4.0630529808945797
30
0
10
1.5285821905937544
20
4.1001703110539109
30
0
10
1.4853775239363163
20
4.1425916892909491
30
0
10
1.445949464716749
20
4.1898758670155178
30
0
10
1.4111784669825054
20
4.2408709123608093
30
0
10
1.3823046775152934
20
4.2958261737609487
30
0
10
1.3582806850938269
20
4.354055730081301
30
0
10
1.3397436459616436
20
4.4161221984090764
30
0
10
1.326862830336083
20
4.4818801497260807
30
0
10
1.3181998635016343
20
4.5510785678220094
30
0
10
1.3174625472413746
20
4.5984771275287013
30
0
10
1.3170865050747862
20
4.6226510920076294
30
0
0
SPLINE
5
114
100
AcDbEntity
8
0
100
AcDbSpline
70
0
71
3
72
23
73
19
74
0
42
0.000000001
43
0.0000000001
44
0.0000000001
40
0
40
0
40
0
40
0
40
0.071979498083052776
40
0.14080438161901956
40
0.2069952920559586
40
0.27074380899985057
40
0.33327656709609377
40
0.3946547594567697
40
0.45626660986837769
40
0.51790760525985491
40
0.57940908668687741
40
0.63909599479917978
40
0.6979966394326228
40
0.75632707531215815
40
0.81507771186234601
40
0.87488878403878068
40
0.93631276204455061
40
1
40
1
40
1
40
1
10
1.3170865050747862
20
4.6226510920076294
30
0
10
1.3176497183105469
20
4.6476439373117202
30
0
10
1.3187514610774858
20
4.6965342772232601
30
0
10
1.3270738010344143
20
4.7680180260805987
30
0
10
1.3408423589924872
20
4.835739982618227
30
0
10
1.3609219010371501
20
4.8995708838668897
30
0
10
1.3857535814104835
20
4.9599208598042681
30
0
10
1.4170653667385877
20
5.0163547992591742
30
0
10
1.4536515683102866
20
5.0691141112547271
30
0
10
1.4957307865180063
20
5.1176901492817715
30
0
10
1.5419754660056491
20
5.1612763012551408
30
0
10
1.5910739275107102
20
5.2001777006663197
30
0
10
1.6436659629122814
20
5.232154465577473
30
0
10
1.6987431646553228
20
5.2588151104060987
30
0
10
1.7567223430212007
20
5.2794188585095414
30
0
10
1.8175044032152123
20
5.2943110388682584
30
0
10
1.8812575401794902
20
5.3030493049619558
30
0
10
1.9247028651845366
20
5.3041133176076976
30
0
10
1.9468184903136687
20
5.3046549479166671
30
0
0
SPLINE
5
115
100
AcDbEntity
8
0
100
AcDbSpline
70
0
71
3
72
31
73
27
74
0
42
0.000000001
43
0.0000000001
44
0.0000000001
40
0
40
0
40
0
40
0
40
0.035445389496166532
40
0.07045358250693616
40
0.10525297335927788
40
0.13962028737964538
40
0.17389946281599122
40
0.2080902724615234
40
0.2428936145722301
40
0.27835968851949466
40
0.31397922618737284
40
0.34941426893020056
40
0.38495651275436427
40
0.42078774877296088
40
0.4571837906976039
40
0.49422273447970533
40
0.53216035248351412
40
0.57117607672422543
40
0.61228330972233591
40
0.6564521756913082
40
0.70426860744470288
40
0.755887109423235
40
0.81109274340955106
40
0.87003055381826855
40
0.93308052624056081
40
1
40
1
40
1
40
1
10
1.9468184903136687
20
5.3046549479166671
30
0
10
1.9628808064541712
20
5.3043300928852251
30
0
10
1.9948073202135927
20
5.3036843897039168
30
0
10
2.0423206004862617
20
5.2987546584030039
30
0
10
2.0887087727154441
20
5.2898680107916753
30
0
10
2.1342742827124055
20
5.2786505641117589
30
0
10
2.1782485673296996
20
5.2630799021136312
30
0
10
2.2214792986202117
20
5.2450740256828858
30
0
10
2.2634450515620061
20
5.2230514769070888
30
0
10
2.3043903553156531
20
5.1980090793057609
30
0
10
2.3440580415911825
20
5.1703870310830782
30
0
10
2.3805545997128483
20
5.1386522869185889
30
0
10
2.4153387764844476
20
5.1049742808957168
30
0
10
2.4477027586995534
20
5.0682960418775433
30
0
10
2.4766228783853039
20
5.028051503551735
30
0
10
2.5040625108201637
20
4.9856635088070682
30
0
10
2.5286989299280012
20
4.9402071372452454
30
0
10
2.5511656335400028
20
4.8916208252849351
30
0
10
2.5711618711715793
20
4.8389044387427198
30
0
10
2.5878437431131669
20
4.7808930022962741
30
0
10
2.6021438292415122
20
4.7173855874753494
30
0
10
2.6140500608571671
20
4.6482980151051763
30
0
10
2.6228787261537354
20
4.573679539416533
30
0
10
2.6293761081609137
20
4.49364105733821
30
0
10
2.6336296651242503
20
4.4081216894029751
30
0
10
2.6339883356479539
20
4.349223751818398
30
0
10
2.6341730101495724
20
4.3188980167747566
30
0
0
LWPOLYLINE
5
116
100
AcDbEntity
8
0
100
AcDbPolyline
90
4
70
1
43
0.0
10
0.92196055355234918
20
3.2500000000000009
10
0.92196055355234963
20
3.5134173010149583
10
0.65854325253739243
20
3.5134173010149583
10
0.65854325253739243
20
3.2500000000000013
0
LINE
5
117
100
AcDbEntity
8
0
100
AcDbLine
10
-1.8817873441256017
20
5.304654947916668
30
0
11
-1.7122124565972221
21
5.304654947916668
31
0
0
LINE
5
118
100
AcDbEntity
8
0
100
AcDbLine
10
-1.7122124565972221
20
5.304654947916668
30
0
11
-1.7122124565972228
21
3.2500000000000013
31
0
0
LINE
5
119
100
AcDbEntity
8
0
100
AcDbLine
10
-1.7122124565972228
20
3.2500000000000013
30
0
11
-1.9756297576121802
21
3.2500000000000013
31
0
0
LINE
5
120
100
AcDbEntity
8
0
100
AcDbLine
10
-1.9756297576121802
20
3.2500000000000013
30
0
11
-1.9756297576121802
21
4.8510832827315378
31
0
0
SPLINE
5
121
100
AcDbEntity
8
0
100
AcDbSpline
70
0
71
3
72
15
73
11
74
0
42
0.000000001
43
0.0000000001
44
0.0000000001
40
0
40
0
40
0
40
0
40
0.11167030010158684
40
0.23209448085601794
40
0.36274345910455291
40
0.50255750971088442
40
0.64152510333128188
40
0.77109849529966856
40
0.89016175737325265
40
1
40
1
40
1
40
1
10
-1.9756297576121802
20
4.8510832827315378
30
0
10
-1.9907973491104005
20
4.8364560068315559
30
0
10
-2.0223215258289491
20
4.8060548168709687
30
0
10
-2.0756098163120509
20
4.7630295416124406
30
0
10
-2.135086358665176
20
4.7194216013631678
30
0
10
-2.199978812140654
20
4.677487691664477
30
0
10
-2.2661256907385461
20
4.6380114378881654
30
0
10
-2.3300481327264517
20
4.6025086167383664
30
0
10
-2.3906789257103291
20
4.5724646160541296
30
0
10
-2.4306167565200476
20
4.5560364376214535
30
0
10
-2.4497808994391028
20
4.5481533865643371
30
0
0
LINE
5
122
100
AcDbEntity
8
0
100
AcDbLine
10
-2.4497808994391028
20
4.5481533865643371
30
0
11
-2.4497808994391028
21
4.7909912109375004
31
0
0
SPLINE
5
123
100
AcDbEntity
8
0
100
AcDbSpline
70
0
71
3
72
15
73
11
74
0
42
0.000000001
43
0.0000000001
44
0.0000000001
40
0
40
0
40
0
40
0
40
0.14265725070061352
40
0.28116899390544359
40
0.41697719236797437
40
0.55085249274755776
40
0.67836417026181117
40
0.79503244300709464
40
0.90199817834735097
40
1
40
1
40
1
40
1
10
-2.4497808994391028
20
4.7909912109375004
30
0
10
-2.4168645035199128
20
4.8079432207359671
30
0
10
-2.3519882362559712
20
4.8413546282620592
30
0
10
-2.2603320993943656
20
4.8990607221296472
30
0
10
-2.1747612360647963
20
4.9616165033967672
30
0
10
-2.0966921828328431
20
5.0290081221968217
30
0
10
-2.0267082512732282
20
5.0978944542201043
30
0
10
-1.9677317758578172
20
5.1674034690505639
30
0
10
-1.9183840141380695
20
5.2349872664646169
30
0
10
-1.8936253072348652
20
5.2821194701626437
30
0
10
-1.8817873441256017
20
5.304654947916668
30
0
0
LWPOLYLINE
5
124
100
AcDbEntity
8
0
100
AcDbPolyline
90
6
70
1
43
0.0
10
-6.8999999999999968
20
-3.9837168574084201
10
-6.9000000000000021
20
3.9837168574084139
10
0
20
7.9674337148168348
10
6.8999999999999995
20
3.9837168574084174
10
6.8999999999999995
20
-3.9837168574084165
10
2.2204460492503131e-15
20
-7.9674337148168348
0
LINE
5
125
100
AcDbEntity
8
0
100
AcDbLine
10
10.899999999999999
20
6.293117934166923
30
0
11
-2.2204460492503131e-15
21
12.586235868333841
31
0
0
LINE
5
126
100
AcDbEntity
8
0
100
AcDbLine
10
-2.2204460492503131e-15
20
12.586235868333841
30
0
11
-10.900000000000006
21
6.293117934166915
31
0
0
LINE
5
127
100
AcDbEntity
8
0
100
AcDbLine
10
9.7500000000000053
20
-12.586235868333841
30
0
11
6.5000000000000044
21
-12.586235868333841
31
0
0
ARC
5
128
100
AcDbEntity
8
0
100
AcDbCircle
10
10.562500000000005
20
-12.85283250352051
30
0
40
0.85511988393023197
210
0
220
-0
230
1
100
AcDbArc
50
18.165642838707139
51
161.83435716129281
0
ARC
5
129
100
AcDbEntity
8
0
100
AcDbCircle
10
4.5625000000000053
20
-12.85283250352051
30
0
40
0.85511988393023264
210
0
220
-0
230
1
100
AcDbArc
50
18.1656428387072
51
161.83435716129284
0
LINE
5
130
100
AcDbEntity
8
0
100
AcDbLine
10
4.4408920985006262e-15
20
-12.586235868333841
30
0
11
3.7500000000000044
21
-12.586235868333841
31
0
0
LINE
5
131
100
AcDbEntity
8
0
100
AcDbLine
10
5.3750000000000053
20
-12.586235868333841
30
0
11
6.5000000000000044
21
-12.586235868333841
31
0
0
LINE
5
132
100
AcDbEntity
8
0
100
AcDbLine
10
11.375000000000007
20
-12.586235868333841
30
0
11
13.000000000000005
21
-12.586235868333841
31
0
0
ARC
5
133
100
AcDbEntity
8
0
100
AcDbCircle
10
-4.5624999999999964
20
-12.85283250352051
30
0
40
0.85511988393023264
210
0
220
-0
230
1
100
AcDbArc
50
18.165642838707178
51
161.83435716129281
0
ARC
5
134
100
AcDbEntity
8
0
100
AcDbCircle
10
-10.562499999999996
20
-12.85283250352051
30
0
40
0.85511988393023264
210
0
220
-0
230
1
100
AcDbArc
50
18.1656428387072
51
161.83435716129281
0
LINE
5
135
100
AcDbEntity
8
0
100
AcDbLine
10
4.4408920985006262e-15
20
-12.586235868333841
30
0
11
-3.7499999999999956
21
-12.586235868333841
31
0
0
LINE
5
136
100
AcDbEntity
8
0
100
AcDbLine
10
-5.3749999999999964
20
-12.586235868333841
30
0
11
-9.7499999999999964
21
-12.586235868333841
31
0
0
LINE
5
137
100
AcDbEntity
8
0
100
AcDbLine
10
-12.999999999999993
20
-12.586235868333841
30
0
11
-11.374999999999995
21
-12.586235868333841
31
0
0
LINE
5
138
100
AcDbEntity
8
0
100
AcDbLine
10
13.000000000000005
20
-12.586235868333841
30
0
11
10.899999999999999
21
6.293117934166923
31
0
0
LINE
5
139
100
AcDbEntity
8
0
100
AcDbLine
10
-12.999999999999993
20
-12.586235868333841
30
0
11
-10.900000000000006
21
6.293117934166915
31
0
0
LINE
5
140
100
AcDbEntity
8
0
100
AcDbLine
10
4.5625000000000053
20
-10.276834791575338
30
0
11
-4.5624999999999964
21
-10.276834791575338
31
0
0
LINE
5
141
100
AcDbEntity
8
0
100
AcDbLine
10
4.5625000000000053
20
-10.276834791575338
30
0
11
-4.5624999999999964
21
-10.276834791575338
31
0
0
ARC
5
142
100
AcDbEntity
8
0
100
AcDbCircle
10
8.6528096330275268
20
-15.001911543473392
30
0
40
6.2495586408453825
210
0
220
-0
230
1
100
AcDbArc
50
49.118573132157074
51
130.88142686784292
0
ARC
5
143
100
AcDbEntity
8
0
100
AcDbCircle
10
-8.6528096330275179
20
-15.001911543473392
30
0
40
6.2495586408453843
210
0
220
-0
230
1
100
AcDbArc
50
49.118573132157096
51
130.88142686784292
0
CIRCLE
5
144
100
AcDbEntity
8
0
100
AcDbCircle
10
0
20
0
30
0
40
4.2000000000000002
210
0
220
0
230
1
0
ENDSEC
0
SECTION
2
OBJECTS
0
DICTIONARY
5
C
100
AcDbDictionary
3
ACAD_GROUP
350
D
3
ACAD_MLINESTYLE
350
17
0
DICTIONARY
5
D
100
AcDbDictionary
0
DICTIONARY
5
1A
330
C
100
AcDbDictionary
0
DICTIONARY
5
17
100
AcDbDictionary
0
ENDSEC
0
EOF
