0
SECTION
2
HEADER
9
$INSUNITS
70
4
9
$ACADVER
1
AC1014
9
$HANDSEED
5
FFFF
0
ENDSEC
0
SECTION
2
TABLES
0
TABLE
2
VPORT
5
8
100
AcDbSymbolTable
0
ENDTAB
0
TABLE
2
LTYPE
5
5
100
AcDbSymbolTable
0
LTYPE
5
14
100
AcDbSymbolTableRecord
100
AcDbLinetypeTableRecord
2
BYBLOCK
70
0
0
LTYPE
5
15
100
AcDbSymbolTableRecord
100
AcDbLinetypeTableRecord
2
BYLAYER
70
0
0
ENDTAB
0
TABLE
2
LAYER
5
2
100
AcDbSymbolTable
70
2
0
LAYER
5
50
100
AcDbSymbolTableRecord
100
AcDbLayerTableRecord
2
0
70
0
6
CONTINUOUS
0
ENDTAB
0
TABLE
2
STYLE
5
3
100
AcDbSymbolTable
70
1
0
STYLE
5
11
100
AcDbSymbolTableRecord
100
AcDbTextStyleTableRecord
2
STANDARD
70
0
0
ENDTAB
0
TABLE
2
VIEW
5
6
100
AcDbSymbolTable
70
0
0
ENDTAB
0
TABLE
2
UCS
5
7
100
AcDbSymbolTable
70
0
0
ENDTAB
0
TABLE
2
APPID
5
9
100
AcDbSymbolTable
70
2
0
APPID
5
12
100
AcDbSymbolTableRecord
100
AcDbRegAppTableRecord
2
ACAD
70
0
0
ENDTAB
0
TABLE
2
DIMSTYLE
5
A
100
AcDbSymbolTable
70
1
0
ENDTAB
0
TABLE
2
BLOCK_RECORD
5
1
100
AcDbSymbolTable
70
1
0
BLOCK_RECORD
5
1F
100
AcDbSymbolTableRecord
100
AcDbBlockTableRecord
2
*MODEL_SPACE
0
BLOCK_RECORD
5
1B
100
AcDbSymbolTableRecord
100
AcDbBlockTableRecord
2
*PAPER_SPACE
0
ENDTAB
0
ENDSEC
0
SECTION
2
BLOCKS
0
BLOCK
5
20
100
AcDbEntity
100
AcDbBlockBegin
2
*MODEL_SPACE
0
ENDBLK
5
21
100
AcDbEntity
100
AcDbBlockEnd
0
BLOCK
5
1C
100
AcDbEntity
100
AcDbBlockBegin
2
*PAPER_SPACE
0
ENDBLK
5
1D
100
AcDbEntity
100
AcDbBlockEnd
0
ENDSEC
0
SECTION
2
ENTITIES
0
LWPOLYLINE
5
100
100
AcDbEntity
8
0
100
AcDbPolyline
90
4
70
1
43
0.0
10
-74.5870329350237
20
22.44035425036919
10
-199.38703293502388
20
22.440354250369204
10
-199.38703293502388
20
19.04035398810877
10
-74.5870329350237
20
19.040353988108755
0
ARC
5
101
100
AcDbEntity
8
0
100
AcDbCircle
10
-256.98704238235899
20
87.790358540411063
30
1.3606893389805919e-11
40
13.999999999999986
210
0
220
0
230
1
100
AcDbArc
50
0
51
90
0
LINE
5
102
100
AcDbEntity
8
0
100
AcDbLine
10
-256.98704238235899
20
101.79035854041106
30
1.3606893389805919e-11
11
-274.38704238235863
21
101.79035854041105
31
1.3713474800169934e-11
0
LINE
5
103
100
AcDbEntity
8
0
100
AcDbLine
10
-274.38704238235863
20
101.79035854041105
30
1.3713474800169934e-11
11
-274.38704238235863
21
93.79035398810872
31
1.3713474800169934e-11
0
LINE
5
104
100
AcDbEntity
8
0
100
AcDbLine
10
-274.38704238235863
20
93.79035398810872
30
1.3713474800169934e-11
11
-280.38704238235891
21
93.790353988108649
31
1.3606893389805919e-11
0
LINE
5
105
100
AcDbEntity
8
0
100
AcDbLine
10
-280.38704238235891
20
93.790353988108649
30
1.3606893389805919e-11
11
-280.38704238235891
21
81.790353988108734
31
1.3606893389805919e-11
0
LINE
5
106
100
AcDbEntity
8
0
100
AcDbLine
10
-280.38704238235891
20
81.790353988108734
30
1.3606893389805919e-11
11
-274.38704238235891
21
81.790353988108734
31
1.3642420526593924e-11
0
LINE
5
107
100
AcDbEntity
8
0
100
AcDbLine
10
-274.38704238235891
20
81.790353988108734
30
1.3642420526593924e-11
11
-274.38704238235891
21
69.790353988108762
31
1.3642420526593924e-11
0
LINE
5
108
100
AcDbEntity
8
0
100
AcDbLine
10
-274.38704238235891
20
69.790353988108762
30
1.3642420526593924e-11
11
-280.38704238235891
21
69.790353988108762
31
1.3606893389805919e-11
0
LINE
5
109
100
AcDbEntity
8
0
100
AcDbLine
10
-280.38704238235891
20
69.790353988108762
30
1.3606893389805919e-11
11
-280.38704238235886
21
57.790353988108762
31
1.3606893389805919e-11
0
LINE
5
110
100
AcDbEntity
8
0
100
AcDbLine
10
-280.38704238235886
20
57.790353988108762
30
1.3606893389805919e-11
11
-274.38704238235886
21
57.79035398810877
31
1.3642420526593924e-11
0
LINE
5
111
100
AcDbEntity
8
0
100
AcDbLine
10
-274.38704238235886
20
57.79035398810877
30
1.3642420526593924e-11
11
-274.38704238235891
21
43.438114022610137
31
1.3642420526593924e-11
0
LINE
5
112
100
AcDbEntity
8
0
100
AcDbLine
10
-274.38704238235891
20
43.438114022610137
30
1.3642420526593924e-11
11
-270.98703293502393
21
43.438114022610137
31
1.3642420526593924e-11
0
LINE
5
113
100
AcDbEntity
8
0
100
AcDbLine
10
-270.98703293502393
20
43.438114022610137
30
1.3642420526593924e-11
11
-270.98703293502393
21
28.440353988108804
31
1.3642420526593924e-11
0
LINE
5
114
100
AcDbEntity
8
0
100
AcDbLine
10
-270.98703293502393
20
28.440353988108804
30
1.3642420526593924e-11
11
-256.36676845271768
21
28.440353988108804
31
1.3642420526593924e-11
0
LINE
5
115
100
AcDbEntity
8
0
100
AcDbLine
10
-256.36676845271768
20
28.440353988108804
30
1.3642420526593924e-11
11
-256.36676845271762
21
18.642232902937174
31
1.3642420526593924e-11
0
ARC
5
116
100
AcDbEntity
8
0
100
AcDbCircle
10
-136.98703293502317
20
401.02618475128787
30
1.3713474800169934e-11
40
400.58583085705425
210
-5.286030305034081e-17
220
-1.6931627037567685e-16
230
1
100
AcDbArc
50
252.6617091295432
51
260.08229524725539
0
ARC
5
117
100
AcDbEntity
8
0
100
AcDbCircle
10
-194.61392062480758
20
71.440353706483549
30
1.3677947663381929e-11
40
66.000000000000085
210
-9.2711560709462582e-17
220
-5.302458280998909e-16
230
1
100
AcDbArc
50
260.08229524725544
51
270
0
LINE
5
118
100
AcDbEntity
8
0
100
AcDbLine
10
-194.61392062480758
20
5.4403537064835348
30
1.3677947663381929e-11
11
-79.360145245240048
21
5.4403538942336693
31
1.3677947663381929e-11
0
ARC
5
119
100
AcDbEntity
8
0
100
AcDbCircle
10
-79.360145245240034
20
71.440353706483549
30
1.3642420526593924e-11
40
65.999999812249882
210
1.4487803667753081e-31
220
5.3828995286468204e-16
230
1
100
AcDbArc
50
270
51
279.91770475274461
0
ARC
5
120
100
AcDbEntity
8
0
100
AcDbCircle
10
-136.98703293502317
20
401.02618475128787
30
1.3713474800169934e-11
40
400.58583085705402
210
3.055007209682337e-17
220
-1.7472522470262303e-16
230
1
100
AcDbArc
50
279.91770475274438
51
287.33829087045666
0
LINE
5
121
100
AcDbEntity
8
0
100
AcDbLine
10
-17.607297417329939
20
18.642232902937074
30
1.3642420526593924e-11
11
-17.607297417329949
21
28.440353988108775
31
1.3606893389805919e-11
0
LINE
5
122
100
AcDbEntity
8
0
100
AcDbLine
10
-17.607297417329949
20
28.440353988108775
30
1.3606893389805919e-11
11
-2.9870329350236742
21
28.440353988108772
31
1.3606893389805919e-11
0
LINE
5
123
100
AcDbEntity
8
0
100
AcDbLine
10
-2.9870329350236742
20
28.440353988108772
30
1.3606893389805919e-11
11
-2.9870329350236791
21
43.438114022610108
31
1.3606893389805919e-11
0
LINE
5
124
100
AcDbEntity
8
0
100
AcDbLine
10
-2.9870329350236791
20
43.438114022610108
30
1.3606893389805919e-11
11
0.4129765123113226
21
43.438114022610108
31
1.3606893389805919e-11
0
LINE
5
125
100
AcDbEntity
8
0
100
AcDbLine
10
0.4129765123113226
20
43.438114022610108
30
1.3606893389805919e-11
11
0.41297651231128224
21
57.790353988108748
31
1.3606893389805919e-11
0
LINE
5
126
100
AcDbEntity
8
0
100
AcDbLine
10
0.41297651231128224
20
57.790353988108748
30
1.3606893389805919e-11
11
6.412976512311297
21
57.790353988108727
31
1.3606893389805919e-11
0
LINE
5
127
100
AcDbEntity
8
0
100
AcDbLine
10
6.412976512311297
20
57.790353988108727
30
1.3606893389805919e-11
11
6.4129765123112925
21
69.79035398810872
31
1.3606893389805919e-11
0
LINE
5
128
100
AcDbEntity
8
0
100
AcDbLine
10
6.4129765123112925
20
69.79035398810872
30
1.3606893389805919e-11
11
0.41297651231127824
21
69.790353988108734
31
1.3606893389805919e-11
0
LINE
5
129
100
AcDbEntity
8
0
100
AcDbLine
10
0.41297651231127824
20
69.790353988108734
30
1.3606893389805919e-11
11
0.41297651231130983
21
81.790353988108691
31
1.3606893389805919e-11
0
LINE
5
130
100
AcDbEntity
8
0
100
AcDbLine
10
0.41297651231130983
20
81.790353988108691
30
1.3606893389805919e-11
11
6.4129765123113236
21
81.790353988108691
31
1.3606893389805919e-11
0
LINE
5
131
100
AcDbEntity
8
0
100
AcDbLine
10
6.4129765123113236
20
81.790353988108691
30
1.3606893389805919e-11
11
6.41297651231132
21
93.79035398810862
31
1.3606893389805919e-11
0
LINE
5
132
100
AcDbEntity
8
0
100
AcDbLine
10
6.41297651231132
20
93.79035398810862
30
1.3606893389805919e-11
11
0.41297651231102156
21
93.790353988108691
31
1.3677947663381929e-11
0
LINE
5
133
100
AcDbEntity
8
0
100
AcDbLine
10
0.41297651231102156
20
93.790353988108691
30
1.3677947663381929e-11
11
0.41297651231101895
21
101.79035854041102
31
1.3677947663381929e-11
0
LINE
5
134
100
AcDbEntity
8
0
100
AcDbLine
10
0.41297651231101895
20
101.79035854041102
30
1.3677947663381929e-11
11
-16.98702348768861
21
101.79035854041102
31
1.3677947663381929e-11
0
ARC
5
135
100
AcDbEntity
8
0
100
AcDbCircle
10
-16.987023487688621
20
87.790358540411006
30
1.3642420526593924e-11
40
14.000000000000004
210
-2.0124002684209474e-30
220
-2.5376526277146428e-15
230
1
100
AcDbArc
50
89.999999999999972
51
180
0
LINE
5
136
100
AcDbEntity
8
0
100
AcDbLine
10
-30.987023487688624
20
87.790358540411006
30
1.3642420526593924e-11
11
-30.987023487688617
21
49.790353988108727
31
1.3606893389805919e-11
0
ARC
5
137
100
AcDbEntity
8
0
100
AcDbCircle
10
-48.987023487688582
20
49.790353988108713
30
1.3606893389805919e-11
40
18
210
0
220
0
230
1
100
AcDbArc
50
-90
51
0
0
LINE
5
138
100
AcDbEntity
8
0
100
AcDbLine
10
-48.987023487688582
20
31.790353988108713
30
1.3606893389805919e-11
11
-224.98704238235905
21
31.79035398810873
31
1.3642420526593924e-11
0
ARC
5
139
100
AcDbEntity
8
0
100
AcDbCircle
10
-224.98704238235902
20
49.79035398810872
30
1.3642420526593924e-11
40
18.000000000000007
210
0
220
0
230
1
100
AcDbArc
50
180
51
269.99999999999989
0
LINE
5
140
100
AcDbEntity
8
0
100
AcDbLine
10
-242.98704238235902
20
49.790353988108727
30
1.3642420526593924e-11
11
-242.98704238235902
21
87.790358540411063
31
1.3606893389805919e-11
0
CIRCLE
5
141
100
AcDbEntity
8
0
100
AcDbCircle
10
-247.98704238235902
20
72.290353988108706
30
1.3642420526593924e-11
40
1.6499999999999915
210
-1.2491258152832395e-19
220
1.0382981703060954e-31
230
1
0
CIRCLE
5
142
100
AcDbEntity
8
0
100
AcDbCircle
10
-244.12554932328615
20
37.034274963890972
30
1.3642420526593924e-11
40
1.6499999999999915
210
-1.2491258152832395e-19
220
1.0382981703060954e-31
230
1
0
CIRCLE
5
143
100
AcDbEntity
8
0
100
AcDbCircle
10
-247.98704238235899
20
63.290353988108706
30
1.3642420526593924e-11
40
1.6499999999999915
210
-1.2491258152832395e-19
220
1.0382981703060954e-31
230
1
0
CIRCLE
5
144
100
AcDbEntity
8
0
100
AcDbCircle
10
-247.98704238235899
20
54.290353988108706
30
1.3642420526593924e-11
40
1.6499999999999915
210
-1.2491258152832395e-19
220
1.0382981703060954e-31
230
1
0
CIRCLE
5
145
100
AcDbEntity
8
0
100
AcDbCircle
10
-247.54682499105459
20
45.311938124391588
30
1.3642420526593924e-11
40
1.6499999999999915
210
-1.2491258152832395e-19
220
1.0382981703060954e-31
230
1
0
CIRCLE
5
146
100
AcDbEntity
8
0
100
AcDbCircle
10
-247.98704238235902
20
81.290353988108734
30
1.3642420526593924e-11
40
1.6499999999999915
210
-1.2491258152832395e-19
220
1.0382981703060954e-31
230
1
0
CIRCLE
5
147
100
AcDbEntity
8
0
100
AcDbCircle
10
25.987023487688589
20
81.290353988108691
30
-1.3611217852472355e-11
40
1.6499999999999915
210
1.6640854111224476e-16
220
-9.9561167568495377e-32
230
-1
0
CIRCLE
5
148
100
AcDbEntity
8
0
100
AcDbCircle
10
26.427240878993004
20
45.311938124391567
30
-1.3611291108406214e-11
40
1.6499999999999915
210
1.6640854111224476e-16
220
-9.9561167568495377e-32
230
-1
0
CIRCLE
5
149
100
AcDbEntity
8
0
100
AcDbCircle
10
25.987023487688582
20
54.290353988108684
30
-1.3611217852472355e-11
40
1.6499999999999915
210
1.6640854111224476e-16
220
-9.9561167568495377e-32
230
-1
0
CIRCLE
5
150
100
AcDbEntity
8
0
100
AcDbCircle
10
25.987023487688585
20
63.290353988108691
30
-1.3611217852472355e-11
40
1.6499999999999915
210
1.6640854111224476e-16
220
-9.9561167568495377e-32
230
-1
0
CIRCLE
5
151
100
AcDbEntity
8
0
100
AcDbCircle
10
29.848516546761495
20
37.034274963890944
30
-1.3611860437898829e-11
40
1.6499999999999915
210
1.6640854111224476e-16
220
-9.9561167568495377e-32
230
-1
0
CIRCLE
5
152
100
AcDbEntity
8
0
100
AcDbCircle
10
25.987023487688585
20
72.290353988108691
30
-1.3611217852472355e-11
40
1.6499999999999915
210
1.6640854111224476e-16
220
-9.9561167568495377e-32
230
-1
0
ENDSEC
0
SECTION
2
OBJECTS
0
DICTIONARY
5
C
100
AcDbDictionary
3
ACAD_GROUP
350
D
3
ACAD_MLINESTYLE
350
17
0
DICTIONARY
5
D
100
AcDbDictionary
0
DICTIONARY
5
1A
330
C
100
AcDbDictionary
0
DICTIONARY
5
17
100
AcDbDictionary
0
ENDSEC
0
EOF
