0
SECTION
2
HEADER
9
$INSUNITS
70
4
9
$ACADVER
1
AC1014
9
$HANDSEED
5
FFFF
0
ENDSEC
0
SECTION
2
TABLES
0
TABLE
2
VPORT
5
8
100
AcDbSymbolTable
0
ENDTAB
0
TABLE
2
LTYPE
5
5
100
AcDbSymbolTable
0
LTYPE
5
14
100
AcDbSymbolTableRecord
100
AcDbLinetypeTableRecord
2
BYBLOCK
70
0
0
LTYPE
5
15
100
AcDbSymbolTableRecord
100
AcDbLinetypeTableRecord
2
BYLAYER
70
0
0
ENDTAB
0
TABLE
2
LAYER
5
2
100
AcDbSymbolTable
70
2
0
LAYER
5
50
100
AcDbSymbolTableRecord
100
AcDbLayerTableRecord
2
0
70
0
6
CONTINUOUS
0
ENDTAB
0
TABLE
2
STYLE
5
3
100
AcDbSymbolTable
70
1
0
STYLE
5
11
100
AcDbSymbolTableRecord
100
AcDbTextStyleTableRecord
2
STANDARD
70
0
0
ENDTAB
0
TABLE
2
VIEW
5
6
100
AcDbSymbolTable
70
0
0
ENDTAB
0
TABLE
2
UCS
5
7
100
AcDbSymbolTable
70
0
0
ENDTAB
0
TABLE
2
APPID
5
9
100
AcDbSymbolTable
70
2
0
APPID
5
12
100
AcDbSymbolTableRecord
100
AcDbRegAppTableRecord
2
ACAD
70
0
0
ENDTAB
0
TABLE
2
DIMSTYLE
5
A
100
AcDbSymbolTable
70
1
0
ENDTAB
0
TABLE
2
BLOCK_RECORD
5
1
100
AcDbSymbolTable
70
1
0
BLOCK_RECORD
5
1F
100
AcDbSymbolTableRecord
100
AcDbBlockTableRecord
2
*MODEL_SPACE
0
BLOCK_RECORD
5
1B
100
AcDbSymbolTableRecord
100
AcDbBlockTableRecord
2
*PAPER_SPACE
0
ENDTAB
0
ENDSEC
0
SECTION
2
BLOCKS
0
BLOCK
5
20
100
AcDbEntity
100
AcDbBlockBegin
2
*MODEL_SPACE
0
ENDBLK
5
21
100
AcDbEntity
100
AcDbBlockEnd
0
BLOCK
5
1C
100
AcDbEntity
100
AcDbBlockBegin
2
*PAPER_SPACE
0
ENDBLK
5
1D
100
AcDbEntity
100
AcDbBlockEnd
0
ENDSEC
0
SECTION
2
ENTITIES
0
LWPOLYLINE
5
100
100
AcDbEntity
8
0
100
AcDbPolyline
90
16
70
1
43
0.0
10
148.14391460424605
20
8.9550722640057785
42
-0.19891236884937716
10
139.65863318202213
20
5.4403535902590194
10
65.849448516567705
20
5.4403535902590257
42
-0.19891236884937716
10
57.364167094343813
20
8.955072264005782
10
52.578885728338221
20
13.740353684134096
10
52.578885728338221
20
28.440355303888104
10
31.414028445163598
20
28.440355303888104
10
31.414028445163602
20
43.448286376245676
10
16.914037966900384
20
43.448286376245676
10
16.914037966900359
20
101.79035425036926
10
188.59405325342621
20
101.79035425036926
10
188.59405325342624
20
43.448286376245676
10
174.09405325342624
20
43.448286376245676
10
174.09405325342624
20
28.440355303888104
10
152.92919597025164
20
28.440355303888104
10
152.92919597025164
20
13.740353684134096
0
LWPOLYLINE
5
101
100
AcDbEntity
8
0
100
AcDbPolyline
90
4
70
1
43
0.0
10
82.754261145475454
20
22.440354250369264
10
82.754261145475454
20
19.040354250369262
10
122.75426114547545
20
19.040354250369262
10
122.75426114547545
20
22.440354250369264
0
LWPOLYLINE
5
102
100
AcDbEntity
8
0
100
AcDbPolyline
90
4
70
1
43
0.0
10
28.01402633699043
20
69.790353988108947
10
24.914026336990442
20
69.790353988108947
10
24.914026336990442
20
57.790353988108961
10
28.01402633699043
20
57.790353988108961
0
LWPOLYLINE
5
103
100
AcDbEntity
8
0
100
AcDbPolyline
90
4
70
1
43
0.0
10
28.014026336990415
20
93.790353988108976
10
24.914026336990428
20
93.790353988108976
10
24.914026336990442
20
81.790353988108905
10
28.01402633699043
20
81.790353988108905
0
LWPOLYLINE
5
104
100
AcDbEntity
8
0
100
AcDbPolyline
90
4
70
1
43
0.0
10
177.49405325342624
20
81.790354250369177
10
180.59405325342624
20
81.790354250369177
10
180.59405325342624
20
93.790354250369248
10
177.49405325342624
20
93.790354250369248
0
LWPOLYLINE
5
105
100
AcDbEntity
8
0
100
AcDbPolyline
90
4
70
1
43
0.0
10
180.59405325342624
20
69.790354250369205
10
177.49405325342624
20
69.790354250369205
10
177.49405325342624
20
57.790354250369219
10
180.59405325342624
20
57.790354250369219
0
ENDSEC
0
SECTION
2
OBJECTS
0
DICTIONARY
5
C
100
AcDbDictionary
3
ACAD_GROUP
350
D
3
ACAD_MLINESTYLE
350
17
0
DICTIONARY
5
D
100
AcDbDictionary
0
DICTIONARY
5
1A
330
C
100
AcDbDictionary
0
DICTIONARY
5
17
100
AcDbDictionary
0
ENDSEC
0
EOF
